<svg width="100%" height="100%" viewBox="0 0 134 41" version="1.1" xmlns="http://www.w3.org/2000/svg"
    xmlns:xlink="http://www.w3.org/1999/xlink" xml:space="preserve" xmlns:serif="http://www.serif.com/"
    style="fill-rule:evenodd;clip-rule:evenodd;stroke-linejoin:round;stroke-miterlimit:2;">
    <g>
        <g>
            <path shape-rendering="geometricPrecision"
                d="M0,0.377l9.58,-0c5.007,-0 6.407,2.637 6.407,6.512l-0,6.137c-0,3.391 -1.453,4.952 -3.015,5.543c1.562,0.593 3.499,1.831 3.499,5.868l-0,8.666c-0,4.253 -1.884,7.32 -6.46,7.32l-10.011,0l0,-40.046Zm6.082,5.436l0,10.389l1.831,-0c1.667,-0 2.098,-1.131 2.098,-2.8l0,-5.06c0,-1.667 -0.431,-2.529 -2.098,-2.529l-1.831,0Zm0,16.363l0,12.596l1.831,-0c1.937,-0 2.368,-0.916 2.368,-2.692l0,-7.32c0,-1.669 -0.431,-2.584 -2.368,-2.584l-1.831,0Z"
                style="fill:#1a1818;fill-rule:nonzero;" />
            <rect x="18.569" y="0.376" width="6.082" height="40.048" style="fill:#1a1818;" />
            <path shape-rendering="geometricPrecision"
                d="M32.779,40.962c-3.607,0 -5.813,-3.176 -5.813,-7.32l-0,-25.03c-0,-4.467 1.668,-8.612 7.482,-8.612l1.184,-0c6.512,-0 7.267,4.252 7.267,8.989l-0,4.091l-5.922,-0l0,-4.522c0,-1.776 -0.431,-2.745 -1.937,-2.745c-1.239,-0 -1.884,0.916 -1.884,2.745l-0,23.415c-0,1.884 0.645,2.853 1.992,2.853c1.56,0 2.26,-1.076 2.26,-2.584l-0,-10.012l-2.745,0l-0,-6.136l8.505,0l-0,24.33l-3.446,0c-0.053,-0.215 -0.538,-2.207 -1.022,-3.929c-0.431,1.345 -2.476,4.467 -5.544,4.467l-0.377,0Z"
                style="fill:#1a1818;fill-rule:nonzero;" />
            <path shape-rendering="geometricPrecision"
                d="M51.563,40.424l-6.082,-0l0,-40.048l6.082,0l0,16.041l4.145,0l0,-16.041l6.082,0l0,40.048l-6.082,-0l0,-17.601l-4.145,-0l0,17.601Z"
                style="fill:#1a1818;fill-rule:nonzero;" />
            <path shape-rendering="geometricPrecision"
                d="M80.738,31.488c-0,5.598 -1.885,9.42 -7.753,9.42l-1.021,0c-5.815,0 -7.86,-3.822 -7.86,-9.42l-0,-22.283c-0,-5.598 2.045,-9.205 7.805,-9.205l1.024,0c5.92,0 7.805,3.66 7.805,9.151l-0,22.337Zm-6.19,-22.607c-0,-2.045 -0.701,-3.068 -2.1,-3.068c-1.561,-0 -2.154,0.969 -2.154,3.068l0,23.038c0,1.723 0.485,3.069 2.207,3.069c1.669,-0 2.047,-1.346 2.047,-3.069l-0,-23.038Z"
                style="fill:#1a1818;fill-rule:nonzero;" />
            <path shape-rendering="geometricPrecision"
                d="M82.943,0.377l6.191,-0l-0,31.704c-0,1.722 0.591,2.853 1.937,2.853c1.454,-0 1.992,-1.077 1.992,-2.853l-0,-31.704l6.189,-0l0,31.326c0,5.653 -2.26,9.205 -7.642,9.205l-1.078,0c-5.382,0 -7.589,-3.391 -7.589,-9.205l0,-31.326Z"
                style="fill:#1a1818;fill-rule:nonzero;" />
            <path shape-rendering="geometricPrecision"
                d="M110.071,0c5.005,0 6.943,2.207 6.943,6.944l0,6.567l-5.867,-0l0,-5.76c0,-1.346 -0.269,-2.368 -1.722,-2.368c-1.454,0 -1.776,0.915 -1.776,2.799l-0,0.754c-0,2.26 0.431,3.498 2.476,6.136l3.875,5.006c2.745,3.552 3.607,5.543 3.607,10.119l-0,1.291c-0,5.868 -2.476,9.367 -7.859,9.367l-1.184,-0c-4.898,-0 -7.429,-2.638 -7.429,-7.59l0,-8.02l6.029,-0l-0,6.997c-0,1.884 0.646,2.799 1.992,2.799c1.453,0 1.991,-0.915 1.991,-3.444l0,-0.916c0,-2.906 -0.269,-3.822 -2.476,-6.728l-3.875,-4.952c-2.584,-3.338 -3.338,-5.921 -3.338,-9.905l0,-1.291c0,-5.383 2.692,-7.805 7.482,-7.805l1.131,0Z"
                style="fill:#1a1818;fill-rule:nonzero;" />
            <path shape-rendering="geometricPrecision"
                d="M133.377,0.377l0,5.813l-7.751,-0l0,10.497l6.082,-0l0,6.082l-6.082,-0l0,11.572l8.074,0l0,6.083l-14.157,0l0,-40.047l13.834,-0Z"
                style="fill:#1a1818;fill-rule:nonzero;" />
        </g>
    </g>
</svg>