<?xml version="1.0" encoding="UTF-8" standalone="no"?><!DOCTYPE svg PUBLIC "-//W3C//DTD SVG 1.1//EN" "http://www.w3.org/Graphics/SVG/1.1/DTD/svg11.dtd"><svg width="100%" height="100%" viewBox="0 0 17 20" version="1.1" xmlns="http://www.w3.org/2000/svg" xmlns:xlink="http://www.w3.org/1999/xlink" xml:space="preserve" xmlns:serif="http://www.serif.com/" style="fill-rule:evenodd;clip-rule:evenodd;"><path d="M14.392,4.522l-2.429,-0c-0.081,-1.819 -1.661,-3.294 -3.575,-3.294c-1.913,-0 -3.493,1.472 -3.578,3.294l-2.466,-0l-1.116,14.103l14.321,0l-1.157,-14.103Zm-6.004,-2.553c1.487,0 2.726,1.141 2.808,2.553l-5.615,-0c0.082,-1.412 1.321,-2.553 2.807,-2.553Zm-5.314,3.294l1.732,0l-0,2.442l0.772,0l-0,-2.442l5.621,0l0,2.442l0.772,0l-0,-2.442l1.772,0l1.002,12.621l-12.672,-0l1.001,-12.621Z" style="fill-rule:nonzero;stroke:#000;stroke-width:0.6px;"/></svg>